<?xml version="1.0" encoding="UTF-8" standalone="no"?>
<!-- Created with Inkscape (http://www.inkscape.org/) -->

<svg
   width="206.21201"
   height="206.21201"
   viewBox="0 0 54.560258 54.560259"
   version="1.1"
   id="svg5"
   xml:space="preserve"
   inkscape:version="1.2.2 (732a01da63, 2022-12-09)"
   sodipodi:docname="spider_crab_logo.svg"
   xmlns:inkscape="http://www.inkscape.org/namespaces/inkscape"
   xmlns:sodipodi="http://sodipodi.sourceforge.net/DTD/sodipodi-0.dtd"
   xmlns="http://www.w3.org/2000/svg"
   xmlns:svg="http://www.w3.org/2000/svg"><sodipodi:namedview
     id="namedview7"
     pagecolor="#ffffff"
     bordercolor="#666666"
     borderopacity="1.0"
     inkscape:showpageshadow="2"
     inkscape:pageopacity="0.0"
     inkscape:pagecheckerboard="0"
     inkscape:deskcolor="#d1d1d1"
     inkscape:document-units="mm"
     showgrid="false"
     inkscape:zoom="2.2828798"
     inkscape:cx="169.08468"
     inkscape:cy="109.5108"
     inkscape:window-width="1920"
     inkscape:window-height="1017"
     inkscape:window-x="-8"
     inkscape:window-y="1072"
     inkscape:window-maximized="1"
     inkscape:current-layer="layer1" /><defs
     id="defs2" /><g
     inkscape:label="Layer 1"
     inkscape:groupmode="layer"
     id="layer1"><g
       id="g13106"
       transform="translate(-45.406633,-29.95051)"><circle
         style="fill:#d40000;fill-opacity:1;stroke:none;stroke-width:0.300332;stroke-linecap:round;stroke-linejoin:round"
         id="path2142-0"
         cx="-65.024185"
         cy="58.215717"
         r="1.1310484"
         transform="scale(-1,1)" /><circle
         style="fill:#d40000;fill-opacity:1;stroke:none;stroke-width:0.300332;stroke-linecap:round;stroke-linejoin:round"
         id="path2142-3-7"
         cx="-64.381042"
         cy="55.620964"
         r="1.1310484"
         transform="scale(-1,1)" /><ellipse
         style="fill:#d40000;fill-opacity:1;stroke:none;stroke-width:0.337982;stroke-linecap:round;stroke-linejoin:round"
         id="path2142-3-6-8"
         cx="-67.485878"
         cy="49.921368"
         rx="1.3528225"
         ry="1.1975807"
         transform="scale(-1,1)" /><circle
         style="fill:#d40000;fill-opacity:1;stroke:none;stroke-width:0.341554;stroke-linecap:round;stroke-linejoin:round"
         id="path2142-3-6-9-5-9-3-2-7-5"
         cx="-69.415314"
         cy="61.764111"
         r="1.2862903"
         transform="scale(-1,1)" /><circle
         style="fill:#d40000;fill-opacity:1;stroke:none;stroke-width:0.335665;stroke-linecap:round;stroke-linejoin:round"
         id="path2142-3-6-9-5-9-3-2-7-8-6"
         cx="-66.687492"
         cy="60.278221"
         r="1.2641129"
         transform="scale(-1,1)" /><path
         style="fill:#d40000;fill-opacity:1;stroke:none;stroke-width:0.264583px;stroke-linecap:butt;stroke-linejoin:miter;stroke-opacity:1"
         d="m 70.768145,62.296371 -2.594758,-1.042339 -2.528226,-1.929435 -0.864919,-2.594758 -0.199597,-2.173387 0.510081,-1.951613 0.842742,-1.064516 1.020153,-0.554435 1.020159,-2.75 1.219758,-0.11089 0.354841,-0.310483 -0.133064,-1.28629 1.28629,-0.443548 0.377016,-0.221773 -0.02217,-1.375 0.887095,-0.199597 0.484002,-2.605847 0.484001,2.583669 0.887095,0.199597 -0.02217,1.375 0.377016,0.221773 1.28629,0.443548 -0.133064,1.28629 0.354841,0.310483 1.219758,0.11089 1.020159,2.75 1.020153,0.554435 0.842742,1.064516 0.510081,1.951613 -0.199597,2.173387 -0.864919,2.594758 -2.528226,1.929435 -2.594758,1.042339 -1.659402,0.210686 z"
         id="path356"
         sodipodi:nodetypes="ccccccccccccccccccccccccccccccccccc" /><ellipse
         style="fill:#000000;stroke:none;stroke-width:0.264999;stroke-linecap:round;stroke-linejoin:round"
         id="path510"
         cx="74.410782"
         cy="46.145664"
         rx="0.62651205"
         ry="0.59324592" /><ellipse
         style="fill:#000000;stroke:none;stroke-width:0.264999;stroke-linecap:round;stroke-linejoin:round"
         id="path510-7"
         cx="70.180443"
         cy="46.184475"
         rx="0.62651205"
         ry="0.59324592" /><circle
         style="fill:#d40000;fill-opacity:1;stroke:none;stroke-width:0.300332;stroke-linecap:round;stroke-linejoin:round"
         id="path2142"
         cx="79.727821"
         cy="58.171368"
         r="1.1310484" /><circle
         style="fill:#d40000;fill-opacity:1;stroke:none;stroke-width:0.300332;stroke-linecap:round;stroke-linejoin:round"
         id="path2142-3"
         cx="80.370964"
         cy="55.576614"
         r="1.1310484" /><circle
         style="fill:#d40000;fill-opacity:1;stroke:none;stroke-width:0.353332;stroke-linecap:round;stroke-linejoin:round"
         id="path2142-3-5"
         cx="83.586693"
         cy="44.820568"
         r="1.3306452" /><ellipse
         style="fill:#d40000;fill-opacity:1;stroke:none;stroke-width:0.337982;stroke-linecap:round;stroke-linejoin:round"
         id="path2142-3-6"
         cx="77.44355"
         cy="49.877018"
         rx="1.3528225"
         ry="1.1975807" /><circle
         style="fill:#d40000;fill-opacity:1;stroke:none;stroke-width:0.341554;stroke-linecap:round;stroke-linejoin:round"
         id="path2142-3-6-9-5-9-3-2-7"
         cx="75.070564"
         cy="61.719761"
         r="1.2862903" /><circle
         style="fill:#d40000;fill-opacity:1;stroke:none;stroke-width:0.335665;stroke-linecap:round;stroke-linejoin:round"
         id="path2142-3-6-9-5-9-3-2-7-8"
         cx="77.798386"
         cy="60.233871"
         r="1.2641129" /><path
         style="fill:#d40000;fill-opacity:1;stroke:#d40000;stroke-width:0.264583px;stroke-linecap:butt;stroke-linejoin:miter;stroke-opacity:1"
         d="m 77.754032,48.923387 5.189517,-4.169354 -2.883064,-5.633064 0.975804,-0.887098 3.504033,6.919355 -5.766128,4.923387 z"
         id="path2580" /><path
         style="fill:#d40000;fill-opacity:1;stroke:#d40000;stroke-width:0.264583px;stroke-linecap:butt;stroke-linejoin:miter;stroke-opacity:1"
         d="m 81.036289,38.012097 c 0,0 0.192187,-2.223361 -0.443548,-3.016131 -0.608962,-0.759384 -2.727822,-1.042337 -2.727822,-1.042337 l 0.931452,1.042337 0.133064,0.776211 0.643144,0.354838 -0.04436,0.643146 0.554438,0.221774 -0.133065,0.643144 0.643144,0.86492 -0.776211,-0.709676 -0.864917,-0.06653 0.133064,-0.798388 -0.931452,-0.288306 v -0.776211 l -1.308468,-1.308467 c 0,0 -0.544879,2.580651 0.155241,3.52621 0.606617,0.819277 2.883064,1.020162 2.883064,1.020162 l 0.421373,0.199596 0.731854,-0.709678 z"
         id="path10579"
         sodipodi:nodetypes="csccccccccccccccscccc" /><circle
         style="fill:#d40000;fill-opacity:1;stroke:none;stroke-width:0.353332;stroke-linecap:round;stroke-linejoin:round"
         id="path2142-3-5-2"
         cx="-61.334278"
         cy="45.047329"
         r="1.3306452"
         transform="scale(-1,1)" /><path
         style="fill:#d40000;fill-opacity:1;stroke:#d40000;stroke-width:0.264583px;stroke-linecap:butt;stroke-linejoin:miter;stroke-opacity:1"
         d="m 67.166946,49.150144 -5.189517,-4.169353 2.883064,-5.633064 -0.975804,-0.887098 -3.504033,6.919355 5.766128,4.923387 z"
         id="path2580-5" /><path
         style="fill:#d40000;fill-opacity:1;stroke:#d40000;stroke-width:0.264583px;stroke-linecap:butt;stroke-linejoin:miter;stroke-opacity:1"
         d="m 63.884689,38.238854 c 0,0 -0.192187,-2.22336 0.443548,-3.016131 0.608962,-0.759383 2.727822,-1.042337 2.727822,-1.042337 l -0.931452,1.042337 -0.133064,0.776212 -0.643144,0.354838 0.04436,0.643146 -0.554438,0.221774 0.133065,0.643144 -0.643144,0.86492 0.776211,-0.709676 0.864917,-0.06653 -0.133064,-0.798389 0.931452,-0.288305 v -0.776211 l 1.308468,-1.308467 c 0,0 0.544879,2.580651 -0.155241,3.52621 -0.606617,0.819277 -2.883064,1.020162 -2.883064,1.020162 l -0.421373,0.199596 -0.731854,-0.709678 z"
         id="path10579-8"
         sodipodi:nodetypes="csccccccccccccccscccc" /><path
         style="fill:#d40000;fill-opacity:1;stroke:#d40000;stroke-width:0.264583px;stroke-linecap:butt;stroke-linejoin:miter;stroke-opacity:1"
         d="m 81.104262,54.819009 6.387097,-4.258064 12.330644,8.338709 -1.330645,7.717742 -0.887095,-0.443548 1.153226,-6.919354 -11.26613,-7.540323 -6.120969,3.991935 z"
         id="path12720" /><path
         style="fill:#d40000;fill-opacity:1;stroke:#d40000;stroke-width:0.264583px;stroke-linecap:butt;stroke-linejoin:miter;stroke-opacity:1"
         d="m 80.710158,57.775682 8.681483,0.95198 4.063576,7.691673 -2.004156,9.862623 -0.668854,-0.732329 1.552062,-9.181072 -3.356446,-6.564473 -8.337583,-1.10489 z"
         id="path12720-4"
         sodipodi:nodetypes="ccccccccc" /><path
         style="fill:#d40000;fill-opacity:1;stroke:#d40000;stroke-width:0.264583px;stroke-linecap:butt;stroke-linejoin:miter;stroke-opacity:1"
         d="m 78.772348,60.526772 8.140623,3.204495 1.925027,7.178955 -4.10408,9.765314 -0.404619,-0.905514 3.460588,-9.260516 -1.608249,-5.886565 -7.766085,-3.2415 z"
         id="path12720-4-7"
         sodipodi:nodetypes="ccccccccc" /><path
         style="fill:#d40000;fill-opacity:1;stroke:#d40000;stroke-width:0.264583px;stroke-linecap:butt;stroke-linejoin:miter;stroke-opacity:1"
         d="m 75.738207,62.212477 5.443352,5.399948 0.482301,7.555318 -0.904992,6.315317 -0.404619,-0.905514 0.2615,-5.810519 -0.165523,-6.262928 -5.068814,-5.436953 z"
         id="path12720-4-7-0"
         sodipodi:nodetypes="ccccccccc" /><path
         style="fill:#d40000;fill-opacity:1;stroke:#d40000;stroke-width:0.264583px;stroke-linecap:butt;stroke-linejoin:miter;stroke-opacity:1"
         d="m 64.269259,55.315243 -6.387097,-4.258064 -12.330644,8.338709 1.330645,7.717742 0.887095,-0.443548 -1.153226,-6.919354 11.26613,-7.540323 6.120969,3.991935 z"
         id="path12720-0" /><path
         style="fill:#d40000;fill-opacity:1;stroke:#d40000;stroke-width:0.264583px;stroke-linecap:butt;stroke-linejoin:miter;stroke-opacity:1"
         d="m 64.199768,57.798766 -8.681483,0.95198 -4.063576,7.691673 2.004156,9.862623 0.668854,-0.732329 -1.552062,-9.181072 3.356446,-6.564473 8.337583,-1.10489 z"
         id="path12720-4-8"
         sodipodi:nodetypes="ccccccccc" /><path
         style="fill:#d40000;fill-opacity:1;stroke:#d40000;stroke-width:0.264583px;stroke-linecap:butt;stroke-linejoin:miter;stroke-opacity:1"
         d="m 65.510306,60.487128 -8.140623,3.204495 -1.925027,7.178955 4.10408,9.765314 0.404619,-0.905514 -3.460588,-9.260516 1.608249,-5.886565 7.766085,-3.2415 z"
         id="path12720-4-7-4"
         sodipodi:nodetypes="ccccccccc" /><path
         style="fill:#d40000;fill-opacity:1;stroke:#d40000;stroke-width:0.264583px;stroke-linecap:butt;stroke-linejoin:miter;stroke-opacity:1"
         d="m 68.858083,61.984652 -5.443352,5.399948 -0.482301,7.555318 0.904992,6.315317 0.404619,-0.905514 -0.2615,-5.810519 0.165523,-6.262928 5.068814,-5.436953 z"
         id="path12720-4-7-0-2"
         sodipodi:nodetypes="ccccccccc" /></g></g></svg>
